<?xml version="1.0" encoding="utf-8"?>
<!-- Generator: Adobe Illustrator 22.1.0, SVG Export Plug-In . SVG Version: 6.00 Build 0)  -->
<svg version="1.1" id="Layer_1" xmlns="http://www.w3.org/2000/svg" xmlns:xlink="http://www.w3.org/1999/xlink" x="0px" y="0px"
	 viewBox="0 0 594.4 594.4" style="enable-background:new 0 0 594.4 594.4;" xml:space="preserve">
<style type="text/css">
	.st0{display:none;fill:#435CA2;}
	.st1{font-family:'Roboto-Bold';}
	.st2{font-size:89.4136px;}
	.st3{display:none;}
	.st4{display:inline;}
	.st5{fill:#435CA2;}
	.st6{font-size:20.4976px;}
	.st7{display:inline;fill:#435CA2;}
	.st8{display:inline;fill:#FFFFFF;}
	.st9{font-size:28.6621px;}
	.st10{fill-rule:evenodd;clip-rule:evenodd;fill:#ADC64C;}
	.st11{fill-rule:evenodd;clip-rule:evenodd;fill:#F0C730;}
	.st12{fill-rule:evenodd;clip-rule:evenodd;fill:#435CA2;}
	.st13{fill-rule:evenodd;clip-rule:evenodd;fill:#C6235A;}
</style>
<text transform="matrix(1 0 0 1 -26.1048 277.3422)" class="st0 st1 st2">Cosmos</text>
<g class="st3">
	<g class="st4">
		<g>
			<path class="st5" d="M381.9,274c0,0,0.9,0.3,2.6,0.9c1.7,0.6,4.1,1.4,7.4,2.1c3.2,0.8,7.1,1.4,11.5,1.3c4.4-0.1,9.3-1.1,13.7-3.7
				c2.2-1.3,4.3-2.9,6.1-5c1.8-2,3.4-4.4,4.6-7.1c2.5-5.3,3.7-11.6,3.5-18.1c-0.2-6.5-1.8-13.2-4.9-19.2c-3-6-7.5-11.3-12.9-15.2
				c-5.4-3.9-11.9-6.4-18.6-7.6c-3.3-0.6-6.7-0.9-10.2-0.9l-0.6,0l-0.2,0l-0.1,0c-0.2,0,0.1,0,0.1,0l-0.3,0l-1.4,0l-1.4,0
				c-0.4,0-0.8,0.1-1.2,0.1c-1.5,0.1-3.2,0.3-4.8,0.5c-3.2,0.5-6.3,1.3-9.2,2.3c-2.9,1-5.7,2.3-8.3,3.7c-5.2,2.9-9.6,6.6-13.3,10.4
				c-1.8,1.9-3.5,3.9-5,5.9c-1.5,2-2.8,3.9-4,5.8c-2.3,3.8-4,7.4-5.3,10.4c-1.3,3-2.1,5.5-2.6,7.2c-0.5,1.7-0.8,2.6-0.8,2.6
				l-1.8-0.2c0,0,0-0.2,0-0.7c0-0.5,0-1.2,0-2.1c0-1.9,0.2-4.6,0.8-8c0.6-3.5,1.6-7.6,3.4-12.2c0.9-2.3,2-4.7,3.4-7.2
				c1.4-2.4,2.9-5,4.8-7.5c3.7-4.9,8.6-9.9,14.7-13.9c3-2,6.4-3.7,10-5.2c3.6-1.4,7.4-2.5,11.3-3.2c2-0.3,3.9-0.6,6.1-0.7
				c0.5,0,1.1-0.1,1.6-0.1l1.4,0l1.4,0l0.3,0l0.3,0l0.1,0l0.2,0l0.8,0c4,0,8.1,0.4,12.2,1.2c8.2,1.5,16.4,4.9,23.3,10.1
				c6.9,5.2,12.4,12.3,15.8,20c1.7,3.8,3,7.8,3.8,11.8c0.8,4,1.1,8.1,1,12c-0.1,4-0.7,7.8-1.7,11.6c-1,3.7-2.4,7.2-4.3,10.4
				c-1.8,3.2-4.1,6.1-6.7,8.4c-2.6,2.4-5.4,4.3-8.4,5.6c-5.9,2.6-11.9,3.1-16.8,2.6c-5-0.5-9.1-1.8-12.3-3c-3.2-1.3-5.6-2.5-7.2-3.4
				c-1.6-0.9-2.4-1.4-2.4-1.4L381.9,274z"/>
		</g>
		<g>
			<path class="st5" d="M416.8,263.2c0,0,0.3-0.9,1-2.6c0.6-1.7,1.5-4.1,2.3-7.3c0.8-3.2,1.6-7.1,1.5-11.5c0-4.4-0.8-9.3-3.3-13.8
				c-1.3-2.2-2.8-4.4-4.8-6.2c-2-1.9-4.3-3.5-6.9-4.8c-5.2-2.6-11.5-4-18-3.9c-6.5,0-13.2,1.5-19.3,4.4c-6.1,2.9-11.5,7.2-15.5,12.6
				c-4.1,5.4-6.7,11.7-8.1,18.4c-0.7,3.3-1.1,6.7-1.2,10.1l0,0.6l0,0.2l0,0.1c0,0.2,0-0.1,0-0.1l0,0.3l0,1.4l0,1.4
				c0,0.4,0,0.8,0.1,1.2c0,1.5,0.2,3.2,0.4,4.8c0.4,3.2,1.1,6.3,2.1,9.2c0.9,3,2.1,5.7,3.5,8.4c2.7,5.3,6.3,9.8,10.1,13.6
				c1.9,1.9,3.8,3.6,5.8,5.1c1.9,1.5,3.9,2.9,5.7,4.1c3.7,2.4,7.3,4.2,10.2,5.6c3,1.3,5.4,2.2,7.1,2.8c1.7,0.5,2.6,0.8,2.6,0.8
				l-0.2,1.8c0,0-0.2,0-0.7,0c-0.5,0-1.2,0-2.1,0c-1.9-0.1-4.6-0.3-8-1c-3.4-0.7-7.6-1.8-12.1-3.7c-2.3-1-4.7-2.1-7.1-3.5
				c-2.4-1.4-4.9-3-7.3-5c-4.9-3.9-9.7-8.8-13.5-15c-1.9-3.1-3.6-6.5-5-10.1c-1.3-3.6-2.4-7.4-3-11.4c-0.3-2-0.5-3.9-0.6-6.1
				c0-0.5-0.1-1.1-0.1-1.6l0-1.4l0-1.4l0-0.3l0-0.3l0-0.1l0-0.2l0-0.8c0.1-4,0.6-8.1,1.5-12.2c1.7-8.2,5.3-16.3,10.7-23.1
				c5.4-6.8,12.6-12.1,20.3-15.4c3.9-1.6,7.9-2.8,11.9-3.5c4-0.7,8.1-0.9,12-0.7c4,0.2,7.8,0.9,11.5,1.9c3.7,1.1,7.2,2.6,10.3,4.5
				c3.1,1.9,6,4.2,8.3,6.9c2.3,2.6,4.1,5.5,5.4,8.5c2.5,6,2.8,12,2.2,16.9c-0.6,5-2,9-3.3,12.2c-1.4,3.2-2.7,5.6-3.6,7.2
				c-0.9,1.5-1.4,2.4-1.4,2.4L416.8,263.2z"/>
		</g>
		<g>
			<path class="st5" d="M404,225.9c0,0-1-0.2-2.7-0.5c-1.8-0.3-4.3-0.6-7.6-0.8c-3.3-0.2-7.3-0.1-11.6,0.9
				c-4.3,0.9-8.9,2.7-12.8,6.1c-1.9,1.7-3.7,3.7-5.1,6c-1.4,2.3-2.5,5-3.3,7.8c-1.5,5.7-1.5,12.1-0.1,18.4c1.4,6.3,4.2,12.6,8.3,18
				c4.1,5.3,9.4,9.8,15.5,12.6c6.1,2.9,12.9,4.1,19.7,4.1c3.4,0,6.8-0.3,10.2-0.9l0.6-0.1l0.2,0l0.1,0c0.2,0-0.1,0-0.1,0l0.3-0.1
				l1.4-0.3l1.4-0.3c0.4-0.1,0.8-0.2,1.2-0.3c1.5-0.4,3.1-0.9,4.6-1.4c3.1-1,5.9-2.4,8.6-3.9c2.7-1.5,5.2-3.3,7.5-5.2
				c4.6-3.8,8.3-8.2,11.2-12.6c1.4-2.2,2.7-4.5,3.9-6.7c1.1-2.2,2.1-4.4,2.9-6.5c1.6-4.2,2.6-8,3.4-11.2c0.7-3.2,1.1-5.8,1.3-7.5
				c0.2-1.8,0.3-2.7,0.3-2.7l1.8-0.1c0,0,0.1,0.2,0.1,0.7c0.1,0.5,0.3,1.2,0.4,2.1c0.3,1.8,0.7,4.6,0.7,8.1
				c0.1,3.5-0.2,7.8-1.2,12.6c-0.5,2.4-1.1,5-2,7.7c-0.9,2.7-2,5.4-3.4,8.2c-2.8,5.5-6.6,11.3-11.9,16.3c-2.6,2.5-5.6,4.8-8.9,6.9
				c-3.3,2-6.8,3.8-10.5,5.2c-1.9,0.7-3.8,1.3-5.8,1.8c-0.5,0.1-1,0.3-1.5,0.4l-1.3,0.3l-1.4,0.3l-0.3,0.1l-0.2,0l-0.1,0l-0.2,0
				l-0.7,0.1c-4,0.7-8.1,1-12.2,1c-8.3,0-17-1.8-24.8-5.7c-7.8-3.9-14.4-9.8-19.2-16.8c-2.4-3.5-4.4-7.2-5.9-11
				c-1.5-3.8-2.5-7.7-3.2-11.6c-0.6-3.9-0.8-7.8-0.5-11.7c0.3-3.8,1-7.5,2.3-11c1.2-3.5,2.9-6.7,5-9.5c2.1-2.8,4.6-5.2,7.2-7
				c5.3-3.7,11.1-5.2,16.1-5.6c5-0.4,9.2,0.1,12.6,0.7c3.4,0.7,6,1.5,7.7,2c1.7,0.6,2.6,0.9,2.6,0.9L404,225.9z"/>
		</g>
		<g>
			<path class="st5" d="M371.8,242.9c0,0-0.2,0.9-0.5,2.7c-0.3,1.8-0.7,4.3-1,7.6c-0.2,3.3-0.2,7.3,0.6,11.6c0.8,4.3,2.5,9,5.8,12.9
				c1.6,2,3.6,3.8,5.9,5.2c2.3,1.5,4.9,2.6,7.7,3.4c5.6,1.6,12.1,1.8,18.4,0.6c6.4-1.2,12.7-3.9,18.2-7.8c5.4-4,10-9.2,13-15.2
				c3-6,4.4-12.8,4.6-19.5c0.1-3.4-0.2-6.8-0.7-10.2l-0.1-0.6l0-0.2l0-0.1c0-0.2,0,0.1,0,0.1l-0.1-0.3l-0.2-1.4l-0.2-1.4
				c-0.1-0.4-0.2-0.8-0.3-1.2c-0.3-1.5-0.8-3.1-1.3-4.6c-1-3.1-2.2-6-3.7-8.7c-1.4-2.7-3.1-5.3-5-7.6c-3.7-4.7-8-8.4-12.4-11.5
				c-2.2-1.5-4.4-2.8-6.6-4c-2.2-1.1-4.3-2.2-6.4-3c-4.1-1.7-7.9-2.8-11.1-3.6c-3.2-0.8-5.7-1.2-7.5-1.5c-1.8-0.2-2.7-0.4-2.7-0.4
				l-0.1-1.8c0,0,0.2,0,0.7-0.1c0.5-0.1,1.2-0.2,2.1-0.3c1.8-0.3,4.6-0.5,8.1-0.5c3.5,0,7.8,0.4,12.6,1.5c2.4,0.6,5,1.2,7.6,2.2
				c2.6,1,5.4,2.1,8.1,3.5c5.5,2.9,11.1,6.9,16,12.3c2.5,2.7,4.7,5.7,6.7,9c2,3.3,3.7,6.9,5,10.7c0.6,1.9,1.2,3.8,1.7,5.9
				c0.1,0.5,0.3,1,0.4,1.5l0.3,1.4l0.3,1.4l0.1,0.3l0,0.2l0,0.1l0,0.2l0.1,0.7c0.6,4,0.9,8.1,0.7,12.3c-0.2,8.3-2.2,17-6.3,24.6
				c-4.1,7.7-10.2,14.2-17.2,18.8c-3.5,2.3-7.3,4.2-11.1,5.6c-3.8,1.4-7.8,2.3-11.7,2.9c-3.9,0.5-7.9,0.6-11.7,0.2
				c-3.8-0.4-7.5-1.2-11-2.6c-3.4-1.3-6.6-3.1-9.4-5.2c-2.8-2.2-5.1-4.7-6.8-7.4c-3.6-5.4-4.9-11.2-5.3-16.2c-0.3-5,0.3-9.2,1-12.6
				c0.8-3.4,1.6-6,2.2-7.7c0.6-1.7,1-2.6,1-2.6L371.8,242.9z"/>
		</g>
		<circle class="st0" cx="393.7" cy="246.1" r="41.8"/>
	</g>
	<g class="st4">
		<text transform="matrix(1 0 0 1 378.2449 256.5775)" class="st5 st1 st6">Pro</text>
	</g>
</g>
<g class="st3">
	<path class="st7" d="M454.2,258.8c-0.1-3.2-0.4-5.7-0.7-7.4c-0.1-0.8-0.3-1.5-0.4-1.9c-0.1-0.4-0.1-0.6-0.1-0.6l-1.8,0.1
		c0,0-0.1,0.9-0.3,2.5c-0.2,1.6-0.6,4-1.3,6.9c-0.7,2.9-1.7,6.4-3.2,10.1c-0.7,1.9-1.6,3.8-2.6,5.8c-1,2-2.2,4-3.5,6
		c-2.7,4-6.1,8-10.2,11.4c-2.1,1.7-4.3,3.3-6.8,4.6c-2.4,1.4-5,2.6-7.8,3.5c-1.4,0.5-2.8,0.9-4.1,1.2c-0.3,0.1-0.6,0.2-1,0.3
		l-1.2,0.3l-1.2,0.3l-0.2,0c0,0,0,0,0,0l-0.1,0l-0.1,0l-0.6,0.1c-3,0.6-6.1,0.8-9.2,0.8c-6.1,0-12.2-1.1-17.7-3.7
		c-2.2-1-4.2-2.2-6.2-3.7c0.5,0.2,1.1,0.4,1.6,0.6c2.1,1.4,4.4,2.6,6.9,3.6c3.2,1.2,6.6,2,10.1,2.4c3.5,0.4,7.1,0.4,10.7-0.1
		c3.6-0.5,7.2-1.3,10.8-2.6c3.5-1.3,7-3,10.2-5.1c6.5-4.2,12.1-10.3,15.9-17.3c3.7-7.1,5.6-15,5.8-22.7c0.1-3.8-0.1-7.6-0.7-11.3
		l-0.1-0.7l0-0.2l0-0.1l0-0.2l-0.1-0.3l-0.2-1.2l-0.2-1.2c-0.1-0.4-0.2-0.9-0.3-1.4c-0.4-1.9-1-3.7-1.6-5.4
		c-1.2-3.5-2.8-6.8-4.6-9.8c-1.8-3-3.9-5.8-6.2-8.3c-4.5-5-9.7-8.6-14.8-11.3c-5.1-2.6-10-4.2-14.5-5.2c-4.4-0.9-8.4-1.2-11.6-1.2
		c-3.2,0-5.7,0.3-7.4,0.5c-0.8,0.1-1.5,0.3-1.9,0.3c-0.4,0.1-0.7,0.1-0.7,0.1l0.1,1.8c0,0,0.9,0.1,2.5,0.4c1.6,0.3,3.9,0.7,6.8,1.4
		c2.9,0.8,6.3,1.8,10.1,3.4c1.9,0.8,3.8,1.7,5.8,2.8c2,1.1,4,2.3,6,3.7c3.9,2.8,7.9,6.2,11.1,10.5c1.6,2.1,3.2,4.4,4.5,6.9
		c1.3,2.5,2.5,5.1,3.3,7.8c0.4,1.4,0.9,2.8,1.2,4.2c0.1,0.3,0.2,0.7,0.2,1l0.2,1.2l0.2,1.2l0,0.2c0,0,0,0,0,0l0,0.1l0,0.1l0.1,0.6
		c0.5,3,0.7,6.1,0.6,9.2c-0.1,2.3-0.3,4.7-0.7,7c0.2-1.6,0.4-3.3,0.4-5c0.1-3.6-0.2-7.4-0.9-11.1c-0.7-3.7-1.9-7.4-3.5-10.9
		c-3.1-7.1-8.2-13.6-14.6-18.4c-6.4-4.8-14-7.9-21.5-9.3c-3.8-0.7-7.5-1.1-11.2-1.1l-0.7,0l-0.2,0l-0.1,0l-0.2,0l-0.3,0l-1.3,0
		l-1.3,0c-0.4,0-1,0.1-1.4,0.1c-2,0.1-3.8,0.4-5.6,0.7c-3.6,0.6-7.1,1.7-10.4,3c-3.3,1.3-6.4,3-9.2,4.8c-5.6,3.7-10.1,8.3-13.5,12.8
		c-3.4,4.6-5.7,9.2-7.4,13.5c-1.6,4.2-2.5,8.1-3.1,11.2c-0.5,3.2-0.6,5.7-0.6,7.4c0,0.8,0,1.5,0,1.9c0,0.4,0,0.7,0,0.7l1.8,0.2
		c0,0,0.3-0.8,0.7-2.4c0.5-1.5,1.3-3.8,2.5-6.5c1.2-2.7,2.8-6,4.9-9.4c1.1-1.7,2.3-3.5,3.7-5.3c1.4-1.8,2.9-3.5,4.6-5.3
		c3.4-3.4,7.4-6.8,12.1-9.3c2.4-1.3,4.8-2.4,7.5-3.3c2.6-0.9,5.4-1.6,8.3-2.1c1.2-0.2,2.4-0.3,3.6-0.4c-1.2,0.4-2.4,0.9-3.6,1.4
		c-3.2,0.7-6.4,1.6-9.5,2.9c-7.2,3-13.8,7.9-18.8,14.1c-5,6.3-8.3,13.8-9.9,21.3c-0.8,3.8-1.3,7.5-1.4,11.2l0,0.7l0,0.2l0,0.1l0,0.2
		l0,0.3l0,1.3l0,1.3c0,0.4,0,1,0.1,1.4c0.1,2,0.3,3.8,0.5,5.6c0.6,3.6,1.5,7.2,2.7,10.5c1.3,3.3,2.8,6.4,4.6,9.3
		c3.6,5.7,8,10.3,12.5,13.8c4.5,3.5,9.1,6,13.3,7.7c4.2,1.7,8,2.7,11.2,3.3c3.2,0.6,5.7,0.8,7.4,0.8c0.8,0,1.5,0,1.9,0
		c0.4,0,0.7,0,0.7,0l0.2-1.8c0,0-0.8-0.3-2.4-0.8c-1.5-0.5-3.8-1.4-6.5-2.6c-2.7-1.3-5.9-2.9-9.3-5.2c-1.7-1.1-3.4-2.4-5.2-3.8
		c-1.7-1.4-3.5-3-5.2-4.7c-3.3-3.5-6.6-7.6-9-12.3c-1.2-2.4-2.3-4.9-3.1-7.6c-0.9-2.7-1.5-5.4-1.9-8.3c-0.2-1.4-0.3-2.9-0.4-4.3
		c0-0.4,0-0.7-0.1-1.1l0-1.3l0-1.3l0-0.2c0,0,0,0,0,0l0-0.1l0-0.1l0-0.6c0.1-3.1,0.4-6.2,1.1-9.2c0.4-2.2,1-4.3,1.8-6.3
		c-0.1,1.2-0.2,2.4-0.2,3.6c0,1.9,0.1,3.8,0.4,5.6c0,0,0,0.1,0,0.1c-0.3,3.5-0.2,7.1,0.4,10.7c0.6,3.6,1.5,7.2,2.9,10.7
		c1.4,3.5,3.2,6.9,5.4,10.1c4.4,6.4,10.5,11.9,17.7,15.5c7.2,3.6,15.2,5.3,22.8,5.3c3.8,0,7.6-0.3,11.3-0.9l0.7-0.1l0.2,0l0.1,0
		l0.2,0l0.3-0.1l1.2-0.3l1.2-0.3c0.4-0.1,0.9-0.2,1.4-0.4c1.9-0.5,3.6-1.1,5.4-1.7c3.4-1.3,6.7-2.9,9.7-4.8c3-1.9,5.7-4.1,8.1-6.4
		c4.9-4.7,8.4-9.9,10.9-15.1c2.5-5.1,4-10.1,4.8-14.6C454,265.9,454.2,262,454.2,258.8z"/>
	<circle class="st8" cx="391.6" cy="261.6" r="33.4"/>
	<g class="st4">
		<text transform="matrix(1 0 0 1 369.5305 270.8137)" class="st5 st1 st9">Pro</text>
	</g>
</g>
<g>
	<path class="st10" d="M345.1,199c-38.5-18.9-72.7-28.3-115.6-14.9c-95,32.4-123.4,142.7-82.6,228c53.4,104.2,178.6,136.5,283,93.3
		c88.9-38.9,137.5-115,159.7-206c0.7-3.1,1.4-6.3,2.5-9.3c1.7-4.8,2.1,3,2.2,4.1c2.4,64.8-35,134.4-78.9,179.1
		C408.5,579,229,581,135.4,456C72.6,367,80.6,239.1,175.5,175.9c50.1-31.5,133.2-39.2,173.3,13.6C354.1,196.6,357.3,205,345.1,199z"
		/>
	<path class="st11" d="M0,297.1C0,203,66.9,112.8,147.8,70.7C273,8.5,431.3,53.2,485.8,187.5c35.9,96.3-0.6,211.9-102.3,248
		c-44.6,14.6-111.7,10.2-140-33.6c-10.7-17.2,10.6-4.3,16.2-1.4c94,46.5,192.5-17.8,205.6-119c11.8-116.9-86-205.9-197.8-211.9
		C136.6,65.7,38.4,161.4,7.6,282.6c-1.2,5-2.4,10.1-3.7,15.1C1.6,307.3,0,307.6,0,297.1z"/>
	<path class="st12" d="M395.3,345.1c18.8-38.6,28.3-72.6,14.9-115.5c-32.4-95-142.7-123.5-228-82.6C83,197.7,48.1,314.5,83.5,416.5
		c35.5,96.1,115.4,149.8,211.1,173.1c3.1,0.7,6.3,1.4,9.3,2.5c4.8,1.7-2.9,2.1-4,2.2c-64.8,2.4-134.5-35-179.2-78.9
		C15.3,408.4,13.4,229,138.4,135.4c89-62.8,216.9-54.8,280.1,40.1c31.4,50.1,39.2,133.2-13.6,173.3
		C397.6,354.1,389.3,357.3,395.3,345.1z"/>
	<path class="st13" d="M297.2,0c94.1,0,184.3,66.8,226.4,147.7c62.2,125.2,17.6,283.5-116.8,338.1c-96.3,35.9-211.8-0.6-248-102.2
		c-14.6-44.6-10.2-111.7,33.5-140c17.2-10.7,4.3,10.5,1.4,16.2c-46.5,94,17.8,192.5,119.1,205.6c116.9,11.7,205.9-86,211.9-197.8
		c3.9-131.1-91.8-229-213-259.9c-5-1.2-10.1-2.4-15.1-3.7C286.8,1.6,286.8,0,297.2,0z"/>
</g>
</svg>
